<?xml version="1.0" encoding="UTF-8"?>
<!DOCTYPE svg PUBLIC "-//W3C//DTD SVG 1.0//EN" "http://www.w3.org/TR/2001/REC-SVG-20010904/DTD/svg10.dtd">
<!-- Creator: CorelDRAW -->
<svg xmlns="http://www.w3.org/2000/svg" xml:space="preserve" width="1920px" height="425px" version="1.0" style="shape-rendering:geometricPrecision; text-rendering:geometricPrecision; image-rendering:optimizeQuality; fill-rule:evenodd; clip-rule:evenodd"
viewBox="0 0 2583.3 571.29"
 xmlns:xlink="http://www.w3.org/1999/xlink"
 xmlns:xodm="http://www.corel.com/coreldraw/odm/2003">
 <defs>
  <style type="text/css">
   <![CDATA[
    .fil1 {fill:#333333}
    .fil0 {fill:#4F4F4F}
   ]]>
  </style>
 </defs>
 <g id="PowerClip_x0020_Contents">
  <metadata id="CorelCorpID_0Corel-Layer"/>
  <g id="_1228213215872">
   <path class="fil0" d="M2341.59 120.14c-869.36,354.55 -1747.57,266.99 -1972.54,172.61 -179.22,-75.18 -313.02,-194.94 -364.63,-284.75 -1.44,-2.5 -2.92,-5.19 -4.42,-8l0 571.29 2583.3 0 0 -46.33c-113.19,-109.97 -195.05,-228.67 -241.71,-404.82z"/>
   <path class="fil1" d="M2310.22 174.19c-1090.84,397.1 -1755.84,260.4 -1979.93,163.99 -175.87,-75.67 -280.69,-213.22 -330.29,-292l0 525.11 2583.3 0 0 -2.04c-124.24,-109.1 -215.06,-231.94 -273.08,-395.06z"/>
  </g>
 </g>
</svg>
