<?xml version="1.0" encoding="UTF-8"?>
<!DOCTYPE svg PUBLIC "-//W3C//DTD SVG 1.0//EN" "http://www.w3.org/TR/2001/REC-SVG-20010904/DTD/svg10.dtd">
<!-- Creator: CorelDRAW -->
<svg xmlns="http://www.w3.org/2000/svg" xml:space="preserve" width="200px" height="212px" version="1.0" style="shape-rendering:geometricPrecision; text-rendering:geometricPrecision; image-rendering:optimizeQuality; fill-rule:evenodd; clip-rule:evenodd"
viewBox="0 0 174.55 184.95"
 xmlns:xlink="http://www.w3.org/1999/xlink"
 xmlns:xodm="http://www.corel.com/coreldraw/odm/2003">
 <defs>
  <style type="text/css">
   <![CDATA[
    .fil0 {fill:#FEFEFE}
   ]]>
  </style>
 </defs>
 <g id="Layer_x0020_1">
  <metadata id="CorelCorpID_0Corel-Layer"/>
  <g id="_2441706815552">
   <g>
    <path class="fil0" d="M87.27 0c48.2,0 87.28,39.07 87.28,87.27l0 48.84 0 48.84 -42.61 -22.69c-13.06,7.8 -28.34,12.29 -44.67,12.29 -48.2,0 -87.27,-39.08 -87.27,-87.28 0,-48.2 39.07,-87.27 87.27,-87.27zm-12.97 56.66c4.87,4.87 4.87,12.77 0,17.64 -4.87,4.87 -12.77,4.87 -17.64,0 -4.87,-4.87 -4.87,-12.77 0,-17.64 4.87,-4.87 12.77,-4.87 17.64,0zm29.14 30.71l14.78 14.78c3.9,3.89 4.36,9.97 1.39,14.38l0 0 -0.04 0.06 -0.04 0.05 -0.02 0.03 -0.02 0.03 -0.04 0.05 -0.04 0.06 -0.03 0.05 -0.03 0.04 -0.02 0.02 -0.03 0.05 -0.05 0.06 -0.03 0.05 -0.04 0.06 -0.01 0 -0.04 0.05 -0.04 0.05 -0.04 0.06 -0.09 0.1 -0.04 0.05 -0.05 0.06 -0.04 0.05 -0.02 0.02 -0.03 0.03 -0.04 0.05 -0.05 0.06 -0.04 0.05 -0.03 0.03 -0.02 0.02 -0.05 0.05 -0.04 0.05 -0.05 0.05 -0.04 0.04 -0.01 0.01 -0.04 0.05 -0.05 0.05 -0.05 0.05 -0.05 0.05 -0.21 0.2 -0.21 0.2 -0.11 0.09 -0.11 0.1 0 0 -0.11 0.09 -0.11 0.09 0 0.01 -0.11 0.09 -0.11 0.08 0 0.01 -0.12 0.08 -0.11 0.08 0 0.01 -0.11 0.08 -0.12 0.08 -0.01 0 -0.11 0.08 -0.11 0.08 -0.01 0 -0.11 0.07 -0.12 0.08 -0.01 0 -0.11 0.07 -0.12 0.08 -0.01 0 -0.11 0.07 -0.12 0.06 -0.01 0.01 -0.11 0.06 -0.13 0.06 -0.01 0.01 -0.11 0.06 -0.12 0.06 -0.01 0.01 -0.12 0.05 -0.12 0.06 -0.02 0.01 -0.11 0.05 -0.13 0.05 -0.01 0.01 -0.11 0.05 -0.13 0.05 -0.02 0.01 -0.11 0.04 -0.13 0.05 -0.01 0.01 -0.12 0.04 -0.13 0.05 -0.01 0 -0.12 0.04 -0.12 0.05 -0.02 0 -0.12 0.04 -0.13 0.04 -0.02 0 -0.24 0.07 -0.02 0 -0.12 0.03 -0.13 0.04 -0.02 0 -0.11 0.03 -0.4 0.08 -0.02 0.01 -0.25 0.04 -0.02 0.01 -0.27 0.04 -0.11 0.02 -0.16 0.01 -0.11 0.02 -0.14 0.01 -0.03 0.01 -0.1 0.01 -0.14 0.01 -0.03 0 -0.24 0.01 -0.03 0 -0.11 0.01 -0.13 0 -0.03 0 -0.11 0.01 -0.14 0c-2.92,0 -5.85,-1.11 -8.06,-3.32l-14.78 -14.78 -14.78 14.78c-4.42,4.42 -11.65,4.42 -16.07,0 -4.42,-4.42 -4.42,-11.65 0,-16.07l22.81 -22.82 22.82 -22.81c4.42,-4.42 11.65,-4.42 16.07,0 4.42,4.42 4.42,11.65 0,16.07l-14.78 14.78z"/>
   </g>
  </g>
 </g>
</svg>
