<?xml version="1.0" encoding="UTF-8"?>
<!DOCTYPE svg PUBLIC "-//W3C//DTD SVG 1.0//EN" "http://www.w3.org/TR/2001/REC-SVG-20010904/DTD/svg10.dtd">
<!-- Creator: CorelDRAW -->
<svg xmlns="http://www.w3.org/2000/svg" xml:space="preserve" width="2219px" height="1545px" version="1.0" style="shape-rendering:geometricPrecision; text-rendering:geometricPrecision; image-rendering:optimizeQuality; fill-rule:evenodd; clip-rule:evenodd"
viewBox="0 0 3710.43 2583.64"
 xmlns:xlink="http://www.w3.org/1999/xlink"
 xmlns:xodm="http://www.corel.com/coreldraw/odm/2003">
 <defs>
  <style type="text/css">
   <![CDATA[
    .fil1 {fill:none}
    .fil0 {fill:#2B2B2B}
   ]]>
  </style>
 </defs>
 <g id="PowerClip_x0020_Contents">
  <metadata id="CorelCorpID_0Corel-Layer"/>
  <path class="fil0" d="M1941.78 146.54c182.4,182.4 182.4,478.1 0,660.5 -182.41,182.41 -478.1,182.41 -660.51,0 -182.4,-182.4 -182.4,-478.1 0,-660.5 182.41,-182.41 478.1,-182.41 660.51,0zm1091.08 1149.76l553.3 553.3c165.52,165.52 165.52,436.31 0,601.83 -165.51,165.52 -436.31,165.52 -601.83,0l-553.3 -553.3 -553.3 553.3c-165.52,165.52 -436.31,165.52 -601.83,0 -165.52,-165.52 -165.52,-436.31 0,-601.83l854.22 -854.22 854.21 -854.22c165.52,-165.51 436.32,-165.51 601.83,0 165.52,165.52 165.52,436.32 0,601.83l-553.3 553.31z"/>
  <rect class="fil1" width="3710.43" height="2583.64"/>
 </g>
</svg>
